<?xml version="1.0" ?><svg viewBox="0 0 512 512" xmlns="http://www.w3.org/2000/svg"><defs><style>.cls-1{fill:#bdc3c8;}.cls-2{fill:#2e4060;}.cls-3{fill:#202d40;}.cls-4{fill:#c0402b;}</style></defs><title/><g id="Google"><g id="Gtranslate"><path class="cls-1" d="M452,480H276.82L221,120.92H452a28.29,28.29,0,0,1,28.29,28.29v302.5A28.29,28.29,0,0,1,452,480Z"/><path class="cls-1" d="M452,480H276.82L221,120.92h49.51L480.33,329.14V451.71A28.29,28.29,0,0,1,452,480Z"/><polygon class="cls-2" points="276.82 480 353.82 395.43 247.75 395.43 276.82 480"/><path class="cls-3" d="M60,32H236.75L353.82,395.43H60a28.29,28.29,0,0,1-28.29-28.28V60.29A28.29,28.29,0,0,1,60,32Z"/><path class="cls-3" d="M415.11,243.76H452V226.47H368V198.58H339.68v28.28H294.11v16.9H394.68s-6,28.76-30.33,55.33C345.93,277.36,340.86,265,340.86,265H318.47s4.27,10.48,18.46,31.43c2.6,3.84,7.61,9.78,13.9,16.75-18.58,19-28.83,28.43-28.83,28.43l14.14,11.79s13-11.77,27.45-26.43c23.42,24.78,52.7,53.53,52.7,53.53l13.36-14.53s-17.29-16.5-49.11-49.11c-1.28-1.31-2.5-2.59-3.7-3.85,5.26-5.78,10.22-11.59,14.31-17C409.61,271.65,415.11,243.76,415.11,243.76Z"/><path class="cls-4" d="M157,197.75q0,14.35,0,28.72h40.1a34.55,34.55,0,0,1-14.73,22.73,42.07,42.07,0,0,1-16.21,6.4,48,48,0,0,1-17.56,0,43.12,43.12,0,0,1-16.39-7.08,45.7,45.7,0,0,1-16.86-22.6,44.57,44.57,0,0,1,0-28.66,45.77,45.77,0,0,1,10.68-17.35,43.24,43.24,0,0,1,43.59-11.33,39.86,39.86,0,0,1,15.87,9.33c4.52-4.5,9-9,13.54-13.53,2.37-2.43,4.86-4.75,7.15-7.24a71.32,71.32,0,0,0-23.68-14.68A73.75,73.75,0,0,0,91.25,178.5,73.66,73.66,0,0,0,138,282.65a78.61,78.61,0,0,0,37.65.4,64.91,64.91,0,0,0,48.75-46.23,86.44,86.44,0,0,0,1.88-39.07Z"/></g></g></svg>